<svg width="56" height="56" viewBox="0 0 56 56" fill="none" xmlns="http://www.w3.org/2000/svg">
<rect width="56" height="56" rx="16" fill="white"/>
<g clip-path="url(#clip0)">
<path fill-rule="evenodd" clip-rule="evenodd" d="M44.844 32.7915H13.9701C13.9701 32.7915 11.1105 25.5553 11.0961 17.9306H41.9699C41.9061 23.2102 44.844 32.7915 44.844 32.7915Z" fill="#E6E6E6"/>
<path fill-rule="evenodd" clip-rule="evenodd" d="M43.8835 36.7802H13.0097C13.0097 36.7802 11.1062 25.8734 11.0961 17.9306H41.9699C41.9127 24.9372 43.8835 36.7802 43.8835 36.7802Z" fill="#CFCFCF"/>
<path fill-rule="evenodd" clip-rule="evenodd" d="M11.0959 40.218H41.9698V17.8065H11.0959V40.218Z" fill="white"/>
<path fill-rule="evenodd" clip-rule="evenodd" d="M11.0959 40.218H41.9698V17.8065H11.0959V40.218Z" fill="url(#paint0_linear)"/>
<path fill-rule="evenodd" clip-rule="evenodd" d="M18.1128 15.0051V15.0051C18.8879 15.0051 19.5162 15.6334 19.5162 16.4084V19.588C19.5162 20.3631 18.8879 20.9914 18.1128 20.9914C17.3378 20.9914 16.7095 20.3631 16.7095 19.588V16.4084C16.7095 15.6334 17.3378 15.0051 18.1128 15.0051V15.0051Z" fill="black"/>
<path fill-rule="evenodd" clip-rule="evenodd" d="M34.761 15.0051V15.0051C35.5361 15.0051 36.1644 15.6334 36.1644 16.4084V19.588C36.1644 20.3631 35.5361 20.9914 34.761 20.9914C33.986 20.9914 33.3577 20.3631 33.3577 19.588V16.4084C33.3577 15.6334 33.986 15.0051 34.761 15.0051V15.0051Z" fill="black"/>
<path fill-rule="evenodd" clip-rule="evenodd" d="M25.8817 34.5564H18.6777V32.7704C19.6113 32.0457 20.41 31.4038 21.0739 30.8447C21.7377 30.2856 22.2797 29.7705 22.6998 29.2995C23.1199 28.8284 23.4285 28.3832 23.6256 27.9639C23.8227 27.5446 23.9212 27.1071 23.9212 26.6516C23.9212 26.0925 23.7527 25.6473 23.4155 25.316C23.0784 24.9847 22.5987 24.819 21.9763 24.819C21.4162 24.819 20.8846 24.951 20.3815 25.215C19.8784 25.4791 19.409 25.8181 18.9734 26.2323V24.4463C19.3883 24.0943 19.8499 23.8096 20.3581 23.5922C20.8664 23.3747 21.4732 23.266 22.1786 23.266C22.7387 23.266 23.247 23.3437 23.7034 23.499C24.1598 23.6543 24.5462 23.8743 24.8626 24.159C25.1789 24.4437 25.4227 24.7906 25.5939 25.1995C25.765 25.6085 25.8506 26.0666 25.8506 26.5739C25.8506 27.133 25.7417 27.6584 25.5238 28.1502C25.306 28.642 24.9819 29.1364 24.5514 29.6334C24.1209 30.1303 23.5815 30.648 22.9332 31.1864C22.2849 31.7247 21.5251 32.3201 20.6538 32.9723H25.8817V34.5564ZM34.5258 31.3572C34.5258 31.8749 34.4272 32.3382 34.2301 32.7471C34.0331 33.1561 33.7556 33.5081 33.3977 33.8032C33.0399 34.0983 32.6094 34.3234 32.1063 34.4787C31.6032 34.634 31.0509 34.7117 30.4492 34.7117C29.7024 34.7117 29.0696 34.6211 28.551 34.4399C28.0323 34.2587 27.6071 34.0439 27.2751 33.7954V32.056C27.6071 32.3356 28.0246 32.5944 28.5276 32.8325C29.0307 33.0707 29.635 33.1897 30.3403 33.1897C31.0768 33.1897 31.6395 33.0241 32.0285 32.6928C32.4175 32.3615 32.612 31.9059 32.612 31.3261C32.612 30.736 32.4304 30.2934 32.0674 29.9983C31.7043 29.7032 31.139 29.5557 30.3714 29.5557H29.0022V27.9872H30.4492C30.9782 27.9872 31.4113 27.8448 31.7484 27.5601C32.0856 27.2754 32.2541 26.869 32.2541 26.341C32.2541 25.8647 32.0933 25.4894 31.7718 25.215C31.4502 24.9407 30.9886 24.8035 30.387 24.8035C29.7542 24.8035 29.2149 24.9174 28.7688 25.1452C28.3228 25.3729 27.9079 25.6421 27.5241 25.9527V24.2289C27.8871 23.9597 28.3098 23.7319 28.7922 23.5456C29.2745 23.3592 29.8735 23.266 30.5893 23.266C31.1287 23.266 31.6162 23.3385 32.0518 23.4834C32.4875 23.6284 32.8557 23.8303 33.1565 24.0891C33.4574 24.348 33.6908 24.6586 33.8567 25.0209C34.0227 25.3833 34.1057 25.7819 34.1057 26.2167C34.1057 26.5791 34.046 26.9001 33.9267 27.1796C33.8074 27.4591 33.6493 27.705 33.4522 27.9173C33.2551 28.1295 33.0295 28.3004 32.7753 28.4298C32.5212 28.5592 32.2541 28.6498 31.974 28.7015C32.3163 28.743 32.6405 28.8336 32.9465 28.9733C33.2525 29.1131 33.5222 29.2943 33.7556 29.5169C33.989 29.7395 34.1757 30.0061 34.3157 30.3167C34.4558 30.6273 34.5258 30.9741 34.5258 31.3572Z" fill="white"/>
</g>
<defs>
<linearGradient id="paint0_linear" x1="34.3989" y1="17.8065" x2="27.5646" y2="34.3471" gradientUnits="userSpaceOnUse">
<stop stop-color="#FF3333" stop-opacity="0.75"/>
<stop offset="1" stop-color="#FF3333"/>
</linearGradient>
<clipPath id="clip0">
<rect x="11" y="15" width="34" height="25.5" fill="white"/>
</clipPath>
</defs>
</svg>
