<svg width="56" height="56" viewBox="0 0 56 56" fill="none" xmlns="http://www.w3.org/2000/svg">
<mask id="mask0" mask-type="alpha" maskUnits="userSpaceOnUse" x="0" y="0" width="56" height="56">
<rect width="56" height="56" rx="16" fill="#F8F8F8"/>
</mask>
<g mask="url(#mask0)">
<path d="M51.1791 22.9125C51.1791 10.4618 45.8559 3.58979 37.5132 0H-0.999023V10.1003C2.40753 8.95004 5.98048 8.36948 9.57598 8.38203C34.5023 8.38203 34.4454 35.02 17.2533 52.2121C12.7123 56.7531 8.27 59.87 4.11774 62H26.5568C41.3174 53.0724 51.1791 38.2326 51.1791 22.9125Z" fill="#0000F7"/>
<path d="M9.5755 8.38201C5.97999 8.36941 2.40703 8.94997 -0.999512 10.1003V61.9994H4.11786C8.27012 59.87 12.7118 56.7524 17.2534 52.2115C34.4449 35.0193 34.5018 8.38201 9.5755 8.38201Z" fill="#161616"/>
<path d="M37.5127 0C45.8554 3.58979 51.1786 10.4618 51.1786 22.9125C51.1786 38.2326 41.3169 53.0724 26.5569 61.9994H60.9998V0H37.5127Z" fill="#E3E3E3"/>
<path d="M51.1791 22.9125C51.1791 10.4618 45.8559 3.58979 37.5132 0H-0.999023V10.1003C2.40753 8.95004 5.98048 8.36948 9.57598 8.38203C34.5023 8.38203 34.4454 35.02 17.2533 52.2121C12.7123 56.7531 8.27 59.87 4.11774 62H26.5568C41.3174 53.0724 51.1791 38.2326 51.1791 22.9125Z" fill="url(#paint0_linear)"/>
<path d="M9.5755 8.38201C5.97999 8.36941 2.40703 8.94997 -0.999512 10.1003V61.9994H4.11786C8.27012 59.87 12.7118 56.7524 17.2534 52.2115C34.4449 35.0193 34.5018 8.38201 9.5755 8.38201Z" fill="url(#paint1_linear)"/>
</g>
<defs>
<linearGradient id="paint0_linear" x1="51.1791" y1="31" x2="-0.99903" y2="31" gradientUnits="userSpaceOnUse">
<stop stop-color="white" stop-opacity="0.25"/>
<stop offset="1" stop-color="white" stop-opacity="0"/>
</linearGradient>
<linearGradient id="paint1_linear" x1="-7.32449" y1="38.3943" x2="30.6314" y2="28.224" gradientUnits="userSpaceOnUse">
<stop stop-color="#CADEF2" stop-opacity="0.2"/>
<stop offset="0.0206" stop-color="#C3D6EA" stop-opacity="0.1959"/>
<stop offset="0.167" stop-color="#96A4B2" stop-opacity="0.1666"/>
<stop offset="0.3143" stop-color="#6F7982" stop-opacity="0.1371"/>
<stop offset="0.4595" stop-color="#4F555B" stop-opacity="0.1081"/>
<stop offset="0.602" stop-color="#36393D" stop-opacity="0.0796"/>
<stop offset="0.7413" stop-color="#242627" stop-opacity="0.0517"/>
<stop offset="0.8757" stop-color="#1A1A1A" stop-opacity="0.0249"/>
<stop offset="1" stop-color="#161616" stop-opacity="0"/>
</linearGradient>
</defs>
</svg>
