<svg width="56" height="56" viewBox="0 0 56 56" fill="none" xmlns="http://www.w3.org/2000/svg">
<rect width="56" height="56" rx="16" fill="#191B26"/>
<g clip-path="url(#clip0)">
<path fill-rule="evenodd" clip-rule="evenodd" d="M32.637 32.6368C28.8523 36.5129 28.5861 41.3725 28.2654 51.9993C38.158 51.9993 45.0118 51.9673 48.5304 48.5304C51.9662 45.0126 51.9991 37.8359 52.0001 28.2652C41.3728 28.5858 36.513 28.8519 32.637 32.6368ZM4.00049 28.2652C4.00049 37.8359 4.03341 45.0126 7.46922 48.5304C10.9878 51.9673 17.8425 51.9993 27.7352 51.9993C27.4144 41.3725 27.1483 36.5129 23.3635 32.6368C19.4875 28.8519 14.6277 28.5858 4.00049 28.2652ZM27.7366 4C17.844 4.00094 10.9893 4.03385 7.4707 7.46985C4.03488 10.9876 4.00197 18.1643 4.00197 27.7351C14.6292 27.4144 19.489 27.1483 23.365 23.3634C27.1497 19.4874 27.4159 14.6277 27.7366 4ZM32.637 23.3634C28.8523 19.4874 28.5861 14.6277 28.2654 4C38.158 4.00094 45.0118 4.03385 48.5304 7.46985C51.9662 10.9876 51.9991 18.1643 52.0001 27.7351C41.3728 27.4144 36.513 27.1483 32.637 23.3634Z" fill="url(#paint0_linear)"/>
<path fill-rule="evenodd" clip-rule="evenodd" d="M51.9999 28.2657V28.0005V27.7363C41.3726 27.4147 36.5128 27.1495 32.6368 23.3637C28.8521 19.4886 28.5859 14.6289 28.2652 4.00122H27.9999H27.7347C27.414 14.6289 27.1478 19.4886 23.363 23.3637C19.487 27.1495 14.6272 27.4147 4 27.7363V28.0005V28.2657C14.6272 28.5873 19.487 28.8525 23.363 32.6373C27.1478 36.5134 27.414 41.3731 27.7347 52.0008H27.9999H28.2652C28.5859 41.3731 28.8521 36.5134 32.6368 32.6373C36.5128 28.8525 41.3726 28.5873 51.9999 28.2657Z" fill="white"/>
</g>
<defs>
<linearGradient id="paint0_linear" x1="52.0001" y1="51.9993" x2="52.0001" y2="4" gradientUnits="userSpaceOnUse">
<stop stop-color="#191B26"/>
<stop offset="0.500707" stop-color="#191B26"/>
<stop offset="0.99531" stop-color="#2E313B"/>
<stop offset="1" stop-color="#2E313B"/>
</linearGradient>
<clipPath id="clip0">
<rect x="4" y="4" width="48" height="48" fill="white"/>
</clipPath>
</defs>
</svg>
