<svg width="56" height="56" viewBox="0 0 56 56" fill="none" xmlns="http://www.w3.org/2000/svg">
<rect width="56" height="56" rx="16" fill="#FFE036"/>
<path fill-rule="evenodd" clip-rule="evenodd" d="M32.2645 44.9175C28.3431 45.382 24.3016 44.6077 20.8618 42.5096C19.8826 41.9114 18.9693 41.2148 18.1342 40.4341C15.6677 38.1282 13.881 35.0926 13.0783 31.7466C12.0338 27.3949 12.7135 22.9588 14.9897 19.2548C17.1687 15.7093 20.7679 13.1256 24.8651 12.1658C28.8289 11.2373 32.8575 11.8846 36.2096 13.9882C39.4098 15.9964 41.7269 19.2913 42.5666 23.0271C43.3757 26.6237 42.7621 30.2661 40.8415 33.2835C39.0137 36.1551 36.0394 38.2165 32.6833 38.9391C29.4721 39.6311 26.2356 39.0489 23.5686 37.299C21.0409 35.6395 19.2456 32.9707 18.6448 29.9765C18.0748 27.1345 18.6258 24.287 20.1959 21.9579C21.6782 19.7592 24.0304 18.2231 26.6501 17.7439C29.1096 17.294 31.5531 17.8188 33.5312 19.2203C35.3877 20.5367 36.6554 22.5877 37.0072 24.8487C37.3313 26.939 36.8324 28.9908 35.6024 30.6254C34.4513 32.1539 32.7056 33.1538 30.8117 33.37C29.0983 33.5653 27.4515 33.0808 26.1732 32.007C24.9929 31.0133 24.2555 29.5131 24.1974 27.9874C24.1467 26.6373 24.6322 25.3904 25.564 24.4777C26.4356 23.6237 27.7575 23.18 28.9309 23.3469C29.9268 23.4885 30.7426 24.0404 31.2277 24.8992C31.4349 25.2663 31.4741 25.683 31.37 26.0597C31.2659 26.4365 31.0185 26.7734 30.6524 26.9811C30.2863 27.1889 29.8707 27.2282 29.495 27.124C29.1189 27.0196 28.7828 26.7715 28.5758 26.4046C28.5644 26.3843 28.5525 26.3786 28.5033 26.3717C28.2587 26.3368 27.8889 26.4712 27.6942 26.6616C27.3751 26.9747 27.224 27.3815 27.2431 27.8697C27.2683 28.5386 27.6132 29.2246 28.1314 29.6654C28.9419 30.3464 29.8489 30.4042 30.4666 30.334C31.5191 30.2138 32.5296 29.6352 33.1694 28.7837C33.8997 27.8149 34.1925 26.5836 33.9963 25.3184C33.7713 23.8703 32.9621 22.5565 31.7728 21.715C30.4686 20.7905 28.8439 20.4483 27.1983 20.7495C25.379 21.082 23.7476 22.146 22.7209 23.6685C21.6111 25.3144 21.2246 27.341 21.6323 29.3736C22.0737 31.5715 23.3869 33.5283 25.2377 34.7419C27.2187 36.0416 29.6355 36.4711 32.0434 35.952C34.6088 35.3995 36.8794 33.8275 38.2731 31.6389C39.7543 29.3134 40.223 26.4931 39.5949 23.699C38.9323 20.7524 37.1091 18.1572 34.5935 16.5775C31.934 14.9087 28.7258 14.3986 25.5594 15.1407C22.2478 15.9166 19.3409 18.0001 17.5848 20.8578C15.7367 23.8638 15.1894 27.4773 16.0416 31.032C16.9275 34.725 19.2616 37.9572 22.4461 39.8992C25.3046 41.6424 28.6667 42.282 31.9308 41.8907C35.2206 41.4962 38.4111 40.0545 40.8867 37.6386C42.2956 39.1061 43.0001 39.8398 43.0001 39.8398C40.0346 42.7284 36.2106 44.4502 32.2645 44.9175Z" fill="black"/>
</svg>
