<svg width="56" height="56" viewBox="0 0 56 56" fill="none" xmlns="http://www.w3.org/2000/svg">
<rect width="56" height="56" rx="16" fill="#5C40F4"/>
<path fill-rule="evenodd" clip-rule="evenodd" d="M28 49C39.5956 49 49 39.5995 49 28C49 16.4005 39.5956 7 28 7C16.4044 7 7 16.4005 7 28C7 39.5995 16.4005 49 28 49Z" fill="#5C40F4"/>
<path d="M15.1397 22.1492L13.7085 32.5901C13.2666 35.8083 15.5659 38.4401 18.8115 38.4401H34.9459C38.9267 38.4401 41.9924 34.9285 41.4528 30.9829L39.9356 19.8968C39.5641 17.183 37.034 15.22 34.3124 15.5368L20.2193 17.1713C17.5876 17.4763 15.4994 19.5254 15.1397 22.1492Z" fill="#7373FF"/>
<path d="M35.6252 19.9526L24.2766 20.9675C22.0404 21.1664 20.2626 22.9256 20.0434 25.1585L19.1904 33.7474C18.9352 36.3185 20.8446 38.4239 23.4356 38.4239H35.0193C38.9496 38.4239 41.9751 34.9613 41.445 31.0728L40.4484 23.7893C40.1255 21.4292 38.0009 19.7416 35.6252 19.9526Z" fill="#9999FF"/>
<path d="M37.7193 24.7183L28.8426 25.3283C27.1338 25.4456 25.773 26.8103 25.6674 28.5231L25.249 35.1239C25.1317 36.954 26.5395 38.4478 28.3695 38.4478H35.6976C39.4203 38.4478 42.0559 35.4289 41.5515 31.7375L40.9493 27.3461C40.7343 25.7546 39.3225 24.6049 37.7193 24.7183Z" fill="#F7F7FF"/>
</svg>
