<svg width="56" height="56" viewBox="0 0 56 56" fill="none" xmlns="http://www.w3.org/2000/svg">
<rect width="56" height="56" rx="16" fill="white"/>
<path d="M28.0001 11.2C25.3896 11.2 22.8377 11.974 20.6671 13.4242C18.4965 14.8744 16.8046 16.9356 15.8054 19.3472C14.8061 21.7589 14.5444 24.4127 15.0533 26.9731C15.5622 29.5335 16.8188 31.8855 18.6644 33.7318C21.0529 36.1216 26.6801 39.58 27.0101 43.21C27.0101 43.4726 27.1144 43.7244 27.3 43.91C27.4857 44.0957 27.7375 44.2 28.0001 44.2C28.2626 44.2 28.5144 44.0957 28.7001 43.91C28.8857 43.7244 28.9901 43.4726 28.9901 43.21C29.3201 39.58 34.9472 36.1216 37.3358 33.7318C39.1813 31.8855 40.4379 29.5335 40.9468 26.9731C41.4557 24.4127 41.194 21.7589 40.1947 19.3472C39.1955 16.9356 37.5036 14.8744 35.333 13.4242C33.1624 11.974 30.6105 11.2 28.0001 11.2Z" fill="#FF4433"/>
<path d="M28.0001 29.02C28.9139 29.02 29.8071 28.749 30.5669 28.2414C31.3266 27.7337 31.9188 27.0122 32.2685 26.168C32.6181 25.3238 32.7096 24.3948 32.5314 23.4987C32.3531 22.6025 31.9131 21.7793 31.267 21.1331C30.6208 20.487 29.7976 20.047 28.9014 19.8687C28.0053 19.6905 27.0763 19.782 26.2321 20.1316C25.3879 20.4813 24.6664 21.0735 24.1587 21.8332C23.6511 22.593 23.3801 23.4862 23.3801 24.4C23.3801 25.0067 23.4996 25.6074 23.7318 26.168C23.964 26.7285 24.3043 27.2378 24.7333 27.6668C25.1623 28.0958 25.6716 28.4361 26.2321 28.6683C26.7927 28.9005 27.3934 29.02 28.0001 29.02Z" fill="white"/>
</svg>
