<svg width="56" height="56" viewBox="0 0 56 56" fill="none" xmlns="http://www.w3.org/2000/svg">
<rect width="56" height="56" rx="16" fill="#202333"/>
<path d="M25.1888 16.55C22.8571 16.7569 20.6698 17.7679 19.0015 19.4099C18.333 20.0762 17.8035 20.8685 17.4437 21.741C17.0839 22.6135 16.9009 23.5487 16.9054 24.4925V26.0989C16.8992 27.032 17.0771 27.9572 17.429 28.8215C17.7809 29.6858 18.2998 30.4721 18.9561 31.1355C20.6292 32.8124 22.8404 33.8452 25.2002 34.052C25.4863 34.0741 25.7818 34.0956 26.0685 34.0974C26.044 34.0908 25.1888 32.9258 25.1888 32.9258V16.55Z" fill="#F6F2E9"/>
<path d="M37.6531 40.6315V24.5379C37.6585 22.6579 36.9213 20.8518 35.6018 19.5126C33.929 17.8353 31.7177 16.8022 29.3578 16.5955C29.0724 16.574 28.7761 16.5525 28.4895 16.5507L29.3691 17.7415V37.7877C29.3691 38.9049 29.8129 39.9763 30.6029 40.7662C31.3928 41.5562 32.4642 42 33.5814 42H38.6641L37.6531 40.6315Z" fill="#F6F2E9"/>
</svg>
