<svg width="16" height="16" fill="none" xmlns="http://www.w3.org/2000/svg"><path d="M8 16.003a2.5 2.5 0 0 0 2.5-2.5h-5a2.5 2.5 0 0 0 2.5 2.5z" fill="#000000"></path><path fill-rule="evenodd" clip-rule="evenodd" d="M8 .003a1 1 0 0 0-1 1v.608a4.635 4.635 0 0 0-3.598 3.946l-.49 3.895a3.553 3.553 0 0 1-1.12 2.17l-.352.325c-.36.332-.47.857-.272 1.306.202.456.654.75 1.152.75h11.36c.499 0 .95-.294 1.15-.75a1.146 1.146 0 0 0-.272-1.305l-.353-.326a3.554 3.554 0 0 1-1.119-2.17l-.49-3.895A4.635 4.635 0 0 0 9 1.612v-.61a1 1 0 0 0-1-1z" fill="#000000"></path></svg>