<svg width="16" height="16" viewBox="0 0 16 16" fill="none" xmlns="http://www.w3.org/2000/svg">
<g clip-path="url(#clip0)">
<path fill-rule="evenodd" clip-rule="evenodd" d="M15.5176 10.7362C14.7919 12.7299 13.3039 14.3538 11.381 15.2505C9.45804 16.1471 7.25765 16.2432 5.26388 15.5175C3.2701 14.7919 1.64626 13.3039 0.749578 11.3809C-0.147105 9.458 -0.243176 7.25761 0.482499 5.26384C1.20817 3.27006 2.69615 1.64622 4.61909 0.749537C6.54204 -0.147145 8.74243 -0.243216 10.7362 0.482459C12.73 1.20813 14.3538 2.69611 15.2505 4.61905C16.1472 6.542 16.2433 8.74239 15.5176 10.7362ZM6.03429 10.4771C6.21571 9.97861 6.19169 9.42852 5.96752 8.94778C5.74335 8.46705 5.33739 8.09505 4.83894 7.91363C4.3405 7.73221 3.7904 7.75623 3.30967 7.9804C2.82893 8.20457 2.45694 8.61053 2.27552 9.10898C2.0941 9.60742 2.11812 10.1575 2.34229 10.6383C2.56646 11.119 2.97242 11.491 3.47086 11.6724C3.96931 11.8538 4.5194 11.8298 5.00014 11.6056C5.48087 11.3815 5.85287 10.9755 6.03429 10.4771ZM8.08641 4.8389C8.26783 4.34046 8.24381 3.79036 8.01964 3.30963C7.79547 2.82889 7.38951 2.4569 6.89106 2.27548C6.39262 2.09406 5.84252 2.11808 5.36179 2.34225C4.88105 2.56642 4.50906 2.97238 4.32764 3.47082C4.14622 3.96927 4.17024 4.51936 4.39441 5.0001C4.61858 5.48083 5.02454 5.85283 5.52298 6.03425C6.02143 6.21567 6.57152 6.19165 7.05226 5.96748C7.533 5.74331 7.90499 5.33735 8.08641 4.8389ZM13.7246 6.89102C13.906 6.39258 13.882 5.84248 13.6578 5.36175C13.4336 4.88101 13.0277 4.50902 12.5292 4.3276C12.0308 4.14618 11.4807 4.1702 10.9999 4.39437C10.5192 4.61854 10.1472 5.0245 9.96579 5.52294C9.78437 6.02139 9.80839 6.57148 10.0326 7.05222C10.2567 7.53295 10.6627 7.90495 11.1611 8.08637C11.6596 8.26779 12.2097 8.24377 12.6904 8.0196C13.1711 7.79543 13.5431 7.38947 13.7246 6.89102ZM11.6724 12.5292C11.8539 12.0307 11.8298 11.4806 11.6057 10.9999C11.3815 10.5192 10.9755 10.1472 10.4771 9.96575C9.97865 9.78433 9.42856 9.80835 8.94782 10.0325C8.46709 10.2567 8.09509 10.6627 7.91367 11.1611C7.73225 11.6595 7.75627 12.2096 7.98044 12.6904C8.20461 13.1711 8.61057 13.5431 9.10902 13.7245C9.60746 13.9059 10.1576 13.8819 10.6383 13.6578C11.119 13.4336 11.491 13.0276 11.6724 12.5292Z" fill="url(#paint0_linear)"/>
</g>
<defs>
<linearGradient id="paint0_linear" x1="10.7362" y1="0.482459" x2="5.26388" y2="15.5175" gradientUnits="userSpaceOnUse">
<stop stop-color="#FF9900"/>
<stop offset="1" stop-color="#FF6600"/>
</linearGradient>
<clipPath id="clip0">
<path d="M0 0H16V16H0V0Z" fill="white"/>
</clipPath>
</defs>
</svg>
