<svg width="24" height="24" viewBox="0 0 24 24" fill="none" xmlns="http://www.w3.org/2000/svg">
<path d="M12.2892 4.61539C11.7265 4.61442 11.1681 4.71325 10.6399 4.90729C10.1217 5.09904 9.65121 5.40096 9.26099 5.7922C8.8516 6.21096 8.53527 6.71145 8.33269 7.26091C8.09473 7.91542 7.97867 8.60799 7.99023 9.30432C7.943 10.2221 8.15207 11.135 8.59406 11.9407C8.9526 12.534 9.45871 13.0243 10.0631 13.3638L7.34131 19.3846H9.40522L11.8566 13.8199H13.4338V19.3846H15.2272V4.61539H12.2892ZM13.4248 6.16616V12.2691H12.2261C11.9165 12.2733 11.6086 12.2239 11.3158 12.1231C11.0342 12.0289 10.7824 11.8622 10.5858 11.6396C10.3569 11.3748 10.1878 11.0636 10.0901 10.7274C9.95578 10.2654 9.89496 9.78519 9.90991 9.3043C9.89865 8.79774 9.96863 8.29265 10.1172 7.80823C10.2292 7.4587 10.4066 7.13364 10.6399 6.85035C10.8424 6.62181 11.0954 6.44375 11.3789 6.33038C11.6515 6.22249 11.942 6.16678 12.2351 6.16617L13.4248 6.16616Z" fill="#FF4433"/>
</svg>
